<svg width="24" height="24" viewBox="0 0 24 24" fill="none" xmlns="http://www.w3.org/2000/svg">
<path fill-rule="evenodd" clip-rule="evenodd" d="M2.24628 2.06255C2.1251 2.12119 2 2.31665 2 2.44565C2 2.57075 2.11337 2.77794 2.21892 2.8483C2.31665 2.91085 2.44565 2.92258 3.34868 2.93822C4.30645 2.95776 4.3729 2.96167 4.52927 3.04767C4.7521 3.16495 4.95147 3.37214 5.06093 3.59497C5.11175 3.69661 5.8115 5.76459 6.61289 8.19222L8.07494 12.6018L8.00458 12.7856L7.98929 12.8253C7.8252 13.2523 7.76512 13.4087 7.74236 13.5703C7.72921 13.6636 7.72852 13.7588 7.72743 13.9088C7.7273 13.9259 7.72718 13.9437 7.72702 13.9622C7.72702 14.3297 7.74266 14.4587 7.81693 14.6737C8.05931 15.3774 8.63787 15.9051 9.3689 16.0928C9.709 16.1788 18.8722 16.1827 19.0403 16.0967C19.3609 15.9286 19.357 15.4673 19.0325 15.2797C18.9661 15.2445 17.8871 15.2288 14.2163 15.2132L9.48618 15.1937L9.27508 15.0764C9.06007 14.9591 8.86852 14.7519 8.73951 14.5095C8.68869 14.4079 8.66915 14.2828 8.66524 14.0209C8.66524 13.7199 8.68087 13.63 8.7747 13.411C8.88415 13.1569 8.89197 13.1491 9.04834 13.1257C9.13825 13.1139 11.3313 12.8833 13.9232 12.6136C16.515 12.3438 18.7315 12.1054 18.8488 12.0819C19.3179 11.992 19.8065 11.7457 20.1545 11.4252C20.4086 11.1906 20.6705 10.7723 20.8034 10.3853C20.948 9.96701 22.0231 5.36194 21.9996 5.26421C21.9723 5.15084 21.8393 5.01793 21.7025 4.9632C21.64 4.93974 18.8019 4.88501 14.0326 4.81856C9.86537 4.75992 6.45261 4.70519 6.44089 4.69346C6.43307 4.68564 6.33534 4.39636 6.22197 4.05235C5.93269 3.18059 5.82714 2.9734 5.49876 2.64111C5.19775 2.33619 4.81465 2.12119 4.43154 2.043C4.31426 2.01955 3.8217 2 3.29786 2C2.53556 2 2.34792 2.01173 2.24628 2.06255ZM14.7832 5.75677C18.1686 5.80368 20.9441 5.84668 20.9519 5.8545C20.9598 5.85841 20.7369 6.80835 20.4555 7.9694C19.9238 10.1507 19.8417 10.4048 19.5915 10.6746C19.3922 10.8857 19.1107 11.0538 18.8449 11.1241C18.626 11.1789 9.3259 12.164 9.00534 12.164H8.88415L8.28995 10.354C8.10494 9.79458 7.87152 9.08373 7.65544 8.42565L7.65536 8.42541L7.65525 8.42509C7.48789 7.91538 7.33092 7.43736 7.21491 7.08591L6.73408 5.62386L7.68011 5.64731C8.20004 5.66295 11.3978 5.70986 14.7832 5.75677ZM7.94266 17.3471C7.19209 17.5074 6.53534 18.1485 6.35943 18.8913C6.19133 19.6106 6.39461 20.3182 6.91845 20.842C7.45401 21.3776 8.14985 21.5769 8.87697 21.4088C9.24053 21.3228 9.56499 21.1313 9.8621 20.8342C10.3273 20.369 10.5423 19.7396 10.4524 19.1063C10.3547 18.4222 9.91682 17.8202 9.29135 17.5191C8.83006 17.2924 8.42741 17.2416 7.94266 17.3471ZM8.89652 18.3557C9.30698 18.5551 9.52199 18.9187 9.5259 19.3956C9.5259 19.6262 9.50636 19.724 9.43599 19.8647C9.29526 20.1305 9.04898 20.3612 8.81051 20.4511C7.86057 20.8068 6.96145 19.9077 7.31719 18.9577C7.43055 18.6528 7.73938 18.3753 8.09903 18.258C8.27886 18.1994 8.67369 18.2463 8.89652 18.3557ZM15.7407 17.9261C16.0534 17.6134 16.3779 17.4335 16.7766 17.3475C17.1089 17.2733 17.2848 17.2733 17.6171 17.3436C18.0354 17.4335 18.356 17.6095 18.6726 17.9261C19.1026 18.3561 19.2786 18.7822 19.2786 19.3999C19.2786 19.9784 19.087 20.4397 18.6648 20.858C17.8517 21.6711 16.5616 21.6711 15.7485 20.858C15.3263 20.4397 15.1348 19.9706 15.1348 19.3764C15.1348 18.7861 15.3185 18.3483 15.7407 17.9261ZM18.2543 18.919C18.1331 18.6571 17.9181 18.4343 17.6836 18.3287C17.1949 18.1137 16.5773 18.274 16.2919 18.6845C15.8658 19.3021 16.0456 20.0879 16.6867 20.4124C16.9565 20.5531 17.4568 20.5531 17.7266 20.4124C18.2739 20.1348 18.5084 19.4742 18.2543 18.919Z" fill="#222322"/>
</svg>
