<svg width="30" height="30" viewBox="0 0 30 30" fill="none" xmlns="http://www.w3.org/2000/svg">
<path d="M9.91152 14.8704C9.91152 12.1329 12.1294 9.91319 14.8661 9.91319C17.6028 9.91319 19.8218 12.1329 19.8218 14.8704C19.8218 17.6078 17.6028 19.8276 14.8661 19.8276C12.1294 19.8276 9.91152 17.6078 9.91152 14.8704ZM7.23253 14.8704C7.23253 19.0876 10.6501 22.5061 14.8661 22.5061C19.0821 22.5061 22.4997 19.0876 22.4997 14.8704C22.4997 10.6531 19.0821 7.23462 14.8661 7.23462C10.6501 7.23462 7.23253 10.6531 7.23253 14.8704ZM21.0179 6.93186C21.0178 7.28479 21.1223 7.62984 21.3182 7.92336C21.5141 8.21689 21.7926 8.44572 22.1185 8.58091C22.4444 8.7161 22.8031 8.75159 23.1492 8.68287C23.4953 8.61415 23.8132 8.44433 24.0628 8.19487C24.3124 7.94541 24.4824 7.62752 24.5514 7.2814C24.6203 6.93528 24.5851 6.57647 24.4503 6.25035C24.3154 5.92423 24.0868 5.64545 23.7935 5.44926C23.5003 5.25306 23.1554 5.14827 22.8026 5.14813H22.8018C22.3289 5.14835 21.8754 5.33632 21.5409 5.67077C21.2064 6.00522 21.0183 6.45879 21.0179 6.93186ZM8.86019 26.9745C7.41081 26.9085 6.62302 26.667 6.0995 26.463C5.40543 26.1927 4.91021 25.8708 4.38954 25.3507C3.86887 24.8306 3.54657 24.3357 3.27756 23.6414C3.07348 23.118 2.83205 22.3297 2.76616 20.8799C2.69409 19.3125 2.6797 18.8416 2.6797 14.8705C2.6797 10.8994 2.69528 10.4298 2.76616 8.86108C2.83217 7.41128 3.07538 6.62458 3.27756 6.09959C3.54776 5.40532 3.86958 4.90996 4.38954 4.38914C4.9095 3.86832 5.40424 3.54593 6.0995 3.27684C6.62278 3.0727 7.41081 2.8312 8.86019 2.7653C10.4272 2.6932 10.8979 2.67881 14.8661 2.67881C18.8343 2.67881 19.3055 2.69439 20.8738 2.7653C22.3232 2.83132 23.1096 3.0746 23.6345 3.27684C24.3285 3.54593 24.8238 3.86904 25.3444 4.38914C25.8651 4.90925 26.1862 5.40532 26.4564 6.09959C26.6605 6.62303 26.9019 7.41128 26.9678 8.86108C27.0399 10.4298 27.0543 10.8994 27.0543 14.8705C27.0543 18.8416 27.0399 19.3112 26.9678 20.8799C26.9018 22.3297 26.6592 23.1177 26.4564 23.6414C26.1862 24.3357 25.8644 24.831 25.3444 25.3507C24.8245 25.8703 24.3285 26.1927 23.6345 26.463C23.1112 26.6671 22.3232 26.9086 20.8738 26.9745C19.3068 27.0466 18.8361 27.061 14.8661 27.061C10.8961 27.061 10.4267 27.0466 8.86019 26.9745ZM8.7371 0.090055C7.15451 0.162147 6.0731 0.413159 5.12868 0.780755C4.15061 1.16037 3.32263 1.66965 2.49524 2.49596C1.66786 3.32228 1.16003 4.15181 0.780529 5.13016C0.413039 6.07544 0.1621 7.15658 0.090029 8.73962C0.016769 10.3252 0 10.8321 0 14.8704C0 18.9087 0.016769 19.4156 0.090029 21.0011C0.1621 22.5843 0.413039 23.6653 0.780529 24.6106C1.16003 25.5884 1.66798 26.4188 2.49524 27.2448C3.32251 28.0708 4.15061 28.5793 5.12868 28.96C6.07488 29.3276 7.15451 29.5786 8.7371 29.6507C10.323 29.7228 10.8289 29.7408 14.8661 29.7408C18.9032 29.7408 19.41 29.724 20.9951 29.6507C22.5778 29.5786 23.6585 29.3276 24.6035 28.96C25.581 28.5793 26.4095 28.0711 27.2369 27.2448C28.0643 26.4185 28.5711 25.5884 28.9517 24.6106C29.3191 23.6653 29.5713 22.5842 29.6422 21.0011C29.7142 19.4144 29.731 18.9087 29.731 14.8704C29.731 10.8321 29.7142 10.3252 29.6422 8.73962C29.5701 7.15646 29.3191 6.07485 28.9517 5.13016C28.5711 4.15241 28.063 3.32359 27.2369 2.49596C26.4109 1.66834 25.581 1.16037 24.6047 0.780755C23.6585 0.413159 22.5777 0.160957 20.9963 0.090055C19.4112 0.0179634 18.9044 0 14.8673 0C10.8301 0 10.323 0.0167738 8.7371 0.090055Z" fill="#222322"/>
</svg>
