<svg width="34" height="34" viewBox="0 0 34 34" fill="none" xmlns="http://www.w3.org/2000/svg">
<path d="M8.5 24.8706L9.71971 20.3354C8.73604 18.5687 8.42352 16.5072 8.8395 14.529C9.25547 12.5508 10.372 10.7888 11.9843 9.56618C13.5966 8.34358 15.5964 7.74242 17.6168 7.87303C19.6372 8.00364 21.5426 8.85726 22.9835 10.2772C24.4244 11.6972 25.304 13.5883 25.4609 15.6035C25.6179 17.6187 25.0417 19.6228 23.838 21.2481C22.6343 22.8734 20.884 24.0108 18.9081 24.4516C16.9322 24.8925 14.8633 24.6072 13.0811 23.6481L8.5 24.8706ZM13.302 21.951L13.5853 22.1188C14.8762 22.8827 16.3839 23.1988 17.8736 23.0178C19.3632 22.8369 20.751 22.1691 21.8208 21.1185C22.8905 20.068 23.5822 18.6936 23.7878 17.2096C23.9935 15.7256 23.7017 14.2154 22.9579 12.9143C22.2141 11.6132 21.0601 10.5942 19.6756 10.0163C18.2912 9.43832 16.7541 9.3338 15.304 9.719C13.8538 10.1042 12.5721 10.9575 11.6584 12.1459C10.7447 13.3343 10.2505 14.7911 10.2527 16.2892C10.2515 17.5314 10.5956 18.7495 11.2468 19.8081L11.4244 20.1005L10.7425 22.6318L13.302 21.951Z" fill="#222322"/>
<path fill-rule="evenodd" clip-rule="evenodd" d="M20.1783 17.4534C20.0122 17.3197 19.8178 17.2256 19.6097 17.1782C19.4017 17.1309 19.1856 17.1315 18.9778 17.1802C18.6657 17.3096 18.464 17.7986 18.2623 18.0431C18.2198 18.1017 18.1573 18.1428 18.0866 18.1587C18.0159 18.1746 17.9418 18.1642 17.8782 18.1294C16.7354 17.6826 15.7776 16.8632 15.1602 15.8043C15.1076 15.7382 15.0827 15.6543 15.0907 15.5703C15.0988 15.4862 15.1392 15.4086 15.2034 15.3536C15.4284 15.1313 15.5936 14.856 15.6837 14.553C15.7037 14.2189 15.627 13.8861 15.4628 13.5942C15.3358 13.1851 15.0942 12.8208 14.7665 12.5443C14.5974 12.4684 14.41 12.443 14.2268 12.4711C14.0436 12.4991 13.8725 12.5795 13.734 12.7025C13.4937 12.9096 13.3029 13.1678 13.1757 13.4582C13.0486 13.7486 12.9883 14.0637 12.9993 14.3805C13.0001 14.5583 13.0226 14.7354 13.0666 14.9078C13.1781 15.322 13.3495 15.7177 13.5756 16.0823C13.7386 16.3617 13.9166 16.6322 14.1086 16.8925C14.7326 17.7478 15.5171 18.4739 16.4184 19.0307C16.8706 19.3136 17.354 19.5436 17.859 19.7162C18.3835 19.9536 18.9626 20.0447 19.5349 19.9799C19.8609 19.9306 20.1698 19.8021 20.4344 19.6057C20.699 19.4092 20.9112 19.1509 21.0523 18.8533C21.1352 18.6736 21.1604 18.4726 21.1243 18.278C21.0379 17.8801 20.5049 17.6452 20.1783 17.4534Z" fill="#222322"/>
</svg>
