<svg width="36" height="36" viewBox="0 0 36 36" fill="none" xmlns="http://www.w3.org/2000/svg">
<path d="M6.67601 20.8623L17.1049 30.6592C17.4642 30.9966 17.6438 31.1654 17.8556 31.2069C17.9509 31.2257 18.0491 31.2257 18.1444 31.2069C18.3562 31.1654 18.5358 30.9966 18.8951 30.6592L29.324 20.8623C32.2582 18.1059 32.6146 13.5699 30.1467 10.3891L29.6827 9.79102C26.7304 5.98587 20.8044 6.62402 18.73 10.9705C18.437 11.5844 17.563 11.5844 17.27 10.9705C15.1956 6.62402 9.26958 5.98587 6.31732 9.79102L5.85328 10.3891C3.38542 13.5699 3.74174 18.1059 6.67601 20.8623Z" fill="white" stroke-width="1.5"/>
</svg>
