<svg width="34" height="34" viewBox="0 0 34 34" fill="none" xmlns="http://www.w3.org/2000/svg">
<path d="M14.1705 17.0437C14.1705 15.4776 15.4394 14.2076 17.0051 14.2076C18.5708 14.2076 19.8404 15.4776 19.8404 17.0437C19.8404 18.6098 18.5708 19.8798 17.0051 19.8798C15.4394 19.8798 14.1705 18.6098 14.1705 17.0437ZM12.6378 17.0437C12.6378 19.4564 14.5931 21.4122 17.0051 21.4122C19.4171 21.4122 21.3724 19.4564 21.3724 17.0437C21.3724 14.6309 19.4171 12.6752 17.0051 12.6752C14.5931 12.6752 12.6378 14.6309 12.6378 17.0437ZM20.5246 12.5019C20.5246 12.7039 20.5843 12.9013 20.6964 13.0692C20.8085 13.2371 20.9678 13.368 21.1543 13.4454C21.3408 13.5227 21.546 13.543 21.744 13.5037C21.942 13.4644 22.1239 13.3673 22.2667 13.2245C22.4094 13.0818 22.5067 12.8999 22.5462 12.7019C22.5856 12.5039 22.5655 12.2986 22.4883 12.112C22.4112 11.9255 22.2804 11.766 22.1126 11.6537C21.9448 11.5415 21.7475 11.4815 21.5457 11.4814H21.5453C21.2747 11.4816 21.0152 11.5891 20.8239 11.7805C20.6325 11.9718 20.5249 12.2313 20.5246 12.5019ZM13.569 23.9686C12.7398 23.9309 12.2891 23.7927 11.9896 23.676C11.5925 23.5213 11.3092 23.3372 11.0113 23.0396C10.7134 22.7421 10.529 22.4589 10.3751 22.0617C10.2584 21.7623 10.1203 21.3113 10.0826 20.4818C10.0413 19.5851 10.0331 19.3157 10.0331 17.0438C10.0331 14.7718 10.042 14.5032 10.0826 13.6057C10.1203 12.7762 10.2595 12.3261 10.3751 12.0258C10.5297 11.6286 10.7138 11.3452 11.0113 11.0472C11.3088 10.7493 11.5918 10.5648 11.9896 10.4109C12.289 10.2941 12.7398 10.1559 13.569 10.1182C14.4655 10.077 14.7349 10.0687 17.0051 10.0687C19.2753 10.0687 19.5449 10.0776 20.4422 10.1182C21.2714 10.156 21.7213 10.2952 22.0216 10.4109C22.4187 10.5648 22.702 10.7497 22.9999 11.0472C23.2978 11.3448 23.4815 11.6286 23.6361 12.0258C23.7528 12.3253 23.891 12.7762 23.9287 13.6057C23.9699 14.5032 23.9781 14.7718 23.9781 17.0438C23.9781 19.3157 23.9699 19.5843 23.9287 20.4818C23.8909 21.3113 23.7521 21.7621 23.6361 22.0617C23.4815 22.4589 23.2974 22.7423 22.9999 23.0396C22.7024 23.3369 22.4187 23.5213 22.0216 23.676C21.7222 23.7928 21.2714 23.9309 20.4422 23.9686C19.5457 24.0099 19.2764 24.0181 17.0051 24.0181C14.7338 24.0181 14.4653 24.0099 13.569 23.9686ZM13.4986 8.58765C12.5932 8.6289 11.9745 8.77251 11.4342 8.98281C10.8746 9.19999 10.4009 9.49136 9.92756 9.96411C9.4542 10.4369 9.16367 10.9114 8.94655 11.4712C8.73631 12.012 8.59274 12.6305 8.55151 13.5362C8.50959 14.4433 8.5 14.7333 8.5 17.0437C8.5 19.3541 8.50959 19.6441 8.55151 20.5512C8.59274 21.4569 8.73631 22.0754 8.94655 22.6162C9.16367 23.1756 9.45427 23.6507 9.92756 24.1233C10.4009 24.5958 10.8746 24.8868 11.4342 25.1046C11.9755 25.3149 12.5932 25.4585 13.4986 25.4997C14.4059 25.541 14.6954 25.5512 17.0051 25.5512C19.3148 25.5512 19.6047 25.5416 20.5116 25.4997C21.4171 25.4585 22.0354 25.3149 22.576 25.1046C23.1352 24.8868 23.6093 24.596 24.0826 24.1233C24.556 23.6505 24.8459 23.1756 25.0637 22.6162C25.2739 22.0754 25.4181 21.4569 25.4587 20.5512C25.4999 19.6434 25.5095 19.3541 25.5095 17.0437C25.5095 14.7333 25.4999 14.4433 25.4587 13.5362C25.4175 12.6304 25.2739 12.0116 25.0637 11.4712C24.8459 10.9118 24.5552 10.4376 24.0826 9.96411C23.61 9.49061 23.1352 9.19999 22.5767 8.98281C22.0354 8.77251 21.417 8.62822 20.5123 8.58765C19.6054 8.54641 19.3155 8.53613 17.0058 8.53613C14.6961 8.53613 14.4059 8.54573 13.4986 8.58765Z" fill="#222322"/>
</svg>
