<svg width="194" height="25" viewBox="0 0 194 25" fill="none" xmlns="http://www.w3.org/2000/svg">
<path d="M0.132 19V0.956H2.576V19H0.132ZM11.78 19V0.956H14.224V19H11.78ZM1.796 10.784V8.548H12.378V10.784H1.796ZM23.7154 19.26C22.5021 19.26 21.4101 18.974 20.4394 18.402C19.4688 17.83 18.6974 17.0587 18.1254 16.088C17.5534 15.1 17.2674 13.9993 17.2674 12.786C17.2674 11.59 17.5534 10.5153 18.1254 9.562C18.6974 8.59133 19.4688 7.82 20.4394 7.248C21.4101 6.676 22.5021 6.39 23.7154 6.39C24.9114 6.39 25.9948 6.676 26.9654 7.248C27.9534 7.80267 28.7334 8.56533 29.3054 9.536C29.8774 10.5067 30.1634 11.59 30.1634 12.786C30.1634 13.9993 29.8774 15.1 29.3054 16.088C28.7334 17.0587 27.9534 17.83 26.9654 18.402C25.9948 18.974 24.9114 19.26 23.7154 19.26ZM23.7154 16.998C24.4954 16.998 25.1888 16.816 25.7954 16.452C26.4021 16.088 26.8788 15.594 27.2254 14.97C27.5721 14.3287 27.7454 13.6007 27.7454 12.786C27.7454 11.9887 27.5634 11.278 27.1994 10.654C26.8528 10.03 26.3761 9.54467 25.7694 9.198C25.1801 8.834 24.4954 8.652 23.7154 8.652C22.9354 8.652 22.2421 8.834 21.6354 9.198C21.0288 9.54467 20.5521 10.03 20.2054 10.654C19.8588 11.278 19.6854 11.9887 19.6854 12.786C19.6854 13.6007 19.8588 14.3287 20.2054 14.97C20.5521 15.594 21.0288 16.088 21.6354 16.452C22.2421 16.816 22.9354 16.998 23.7154 16.998ZM32.8 19V0.435999H35.14V19H32.8ZM38.5637 19V0.435999H40.9037V19H38.5637ZM48.3833 19.104L43.0273 6.65H45.6273L49.6053 16.4H48.7733L52.9593 6.65H55.5593L49.7873 19.104H48.3833ZM44.8473 24.174L48.4873 16.712L49.7873 19.104L47.4473 24.174H44.8473ZM60.4825 19L55.5945 6.65H58.0385L61.5745 16.27H60.7945L64.3045 6.65H65.6565L69.1665 16.27H68.3865L71.9225 6.65H74.3665L69.5045 19H68.1265L64.5645 9.666H65.4225L61.8345 19H60.4825ZM81.733 19.26C80.5197 19.26 79.4277 18.974 78.457 18.402C77.4863 17.83 76.715 17.0587 76.143 16.088C75.571 15.1 75.285 13.9993 75.285 12.786C75.285 11.59 75.571 10.5153 76.143 9.562C76.715 8.59133 77.4863 7.82 78.457 7.248C79.4277 6.676 80.5197 6.39 81.733 6.39C82.929 6.39 84.0123 6.676 84.983 7.248C85.971 7.80267 86.751 8.56533 87.323 9.536C87.895 10.5067 88.181 11.59 88.181 12.786C88.181 13.9993 87.895 15.1 87.323 16.088C86.751 17.0587 85.971 17.83 84.983 18.402C84.0123 18.974 82.929 19.26 81.733 19.26ZM81.733 16.998C82.513 16.998 83.2063 16.816 83.813 16.452C84.4197 16.088 84.8963 15.594 85.243 14.97C85.5897 14.3287 85.763 13.6007 85.763 12.786C85.763 11.9887 85.581 11.278 85.217 10.654C84.8703 10.03 84.3937 9.54467 83.787 9.198C83.1977 8.834 82.513 8.652 81.733 8.652C80.953 8.652 80.2597 8.834 79.653 9.198C79.0463 9.54467 78.5697 10.03 78.223 10.654C77.8763 11.278 77.703 11.9887 77.703 12.786C77.703 13.6007 77.8763 14.3287 78.223 14.97C78.5697 15.594 79.0463 16.088 79.653 16.452C80.2597 16.816 80.953 16.998 81.733 16.998ZM96.4596 19.26C95.2462 19.26 94.1542 18.974 93.1836 18.402C92.2129 17.83 91.4416 17.0587 90.8696 16.088C90.2976 15.1 90.0116 13.9993 90.0116 12.786C90.0116 11.59 90.2976 10.5153 90.8696 9.562C91.4416 8.59133 92.2129 7.82 93.1836 7.248C94.1542 6.676 95.2462 6.39 96.4596 6.39C97.6556 6.39 98.7389 6.676 99.7096 7.248C100.698 7.80267 101.478 8.56533 102.05 9.536C102.622 10.5067 102.908 11.59 102.908 12.786C102.908 13.9993 102.622 15.1 102.05 16.088C101.478 17.0587 100.698 17.83 99.7096 18.402C98.7389 18.974 97.6556 19.26 96.4596 19.26ZM96.4596 16.998C97.2396 16.998 97.9329 16.816 98.5396 16.452C99.1462 16.088 99.6229 15.594 99.9696 14.97C100.316 14.3287 100.49 13.6007 100.49 12.786C100.49 11.9887 100.308 11.278 99.9436 10.654C99.5969 10.03 99.1202 9.54467 98.5136 9.198C97.9242 8.834 97.2396 8.652 96.4596 8.652C95.6796 8.652 94.9862 8.834 94.3796 9.198C93.7729 9.54467 93.2962 10.03 92.9496 10.654C92.6029 11.278 92.4296 11.9887 92.4296 12.786C92.4296 13.6007 92.6029 14.3287 92.9496 14.97C93.2962 15.594 93.7729 16.088 94.3796 16.452C94.9862 16.816 95.6796 16.998 96.4596 16.998ZM110.77 19.26C109.626 19.26 108.603 18.9827 107.702 18.428C106.801 17.856 106.081 17.0847 105.544 16.114C105.024 15.1433 104.764 14.0513 104.764 12.838C104.764 11.6247 105.024 10.5327 105.544 9.562C106.081 8.59133 106.801 7.82 107.702 7.248C108.603 6.676 109.626 6.39 110.77 6.39C111.689 6.39 112.521 6.58933 113.266 6.988C114.011 7.36933 114.609 7.90667 115.06 8.6C115.528 9.276 115.788 10.0647 115.84 10.966V14.684C115.788 15.568 115.537 16.3567 115.086 17.05C114.635 17.7433 114.037 18.2893 113.292 18.688C112.547 19.0693 111.706 19.26 110.77 19.26ZM111.16 17.05C111.94 17.05 112.616 16.868 113.188 16.504C113.777 16.14 114.237 15.646 114.566 15.022C114.895 14.3807 115.06 13.6527 115.06 12.838C115.06 11.9887 114.887 11.252 114.54 10.628C114.211 10.004 113.751 9.51 113.162 9.146C112.59 8.782 111.914 8.6 111.134 8.6C110.354 8.6 109.669 8.782 109.08 9.146C108.491 9.51 108.023 10.0127 107.676 10.654C107.347 11.278 107.182 11.9973 107.182 12.812C107.182 13.644 107.347 14.3807 107.676 15.022C108.023 15.646 108.491 16.14 109.08 16.504C109.687 16.868 110.38 17.05 111.16 17.05ZM117.27 19H114.904V15.672L115.346 12.656L114.904 9.666V0.435999H117.27V19ZM130.011 19.26C129.318 19.26 128.659 19.1733 128.035 19C127.428 18.8093 126.865 18.5493 126.345 18.22C125.825 17.8733 125.374 17.466 124.993 16.998L126.501 15.49C126.952 16.0447 127.472 16.4607 128.061 16.738C128.65 16.998 129.309 17.128 130.037 17.128C130.765 17.128 131.328 17.0067 131.727 16.764C132.126 16.504 132.325 16.1487 132.325 15.698C132.325 15.2473 132.16 14.9007 131.831 14.658C131.519 14.398 131.112 14.19 130.609 14.034C130.106 13.8607 129.569 13.696 128.997 13.54C128.442 13.3667 127.914 13.15 127.411 12.89C126.908 12.63 126.492 12.2747 126.163 11.824C125.851 11.3733 125.695 10.7753 125.695 10.03C125.695 9.28467 125.877 8.64333 126.241 8.106C126.605 7.55133 127.108 7.12667 127.749 6.832C128.408 6.53733 129.196 6.39 130.115 6.39C131.086 6.39 131.944 6.56333 132.689 6.91C133.452 7.23933 134.076 7.742 134.561 8.418L133.053 9.926C132.706 9.47533 132.273 9.12867 131.753 8.886C131.25 8.64333 130.678 8.522 130.037 8.522C129.361 8.522 128.841 8.64333 128.477 8.886C128.13 9.11133 127.957 9.432 127.957 9.848C127.957 10.264 128.113 10.5847 128.425 10.81C128.737 11.0353 129.144 11.226 129.647 11.382C130.167 11.538 130.704 11.7027 131.259 11.876C131.814 12.032 132.342 12.2487 132.845 12.526C133.348 12.8033 133.755 13.176 134.067 13.644C134.396 14.112 134.561 14.7273 134.561 15.49C134.561 16.6513 134.145 17.57 133.313 18.246C132.498 18.922 131.398 19.26 130.011 19.26ZM139.079 19V1.476H141.419V19H139.079ZM136.037 8.782V6.65H144.461V8.782H136.037ZM151.719 19.26C150.714 19.26 149.804 19.0347 148.989 18.584C148.192 18.116 147.568 17.4747 147.117 16.66C146.666 15.8453 146.441 14.9007 146.441 13.826V6.65H148.781V13.722C148.781 14.398 148.894 14.9873 149.119 15.49C149.362 15.9753 149.708 16.348 150.159 16.608C150.61 16.868 151.138 16.998 151.745 16.998C152.664 16.998 153.383 16.712 153.903 16.14C154.423 15.5507 154.683 14.7447 154.683 13.722V6.65H157.023V13.826C157.023 14.9007 156.798 15.8453 156.347 16.66C155.896 17.4747 155.272 18.116 154.475 18.584C153.695 19.0347 152.776 19.26 151.719 19.26ZM165.385 19.26C164.241 19.26 163.219 18.9827 162.317 18.428C161.416 17.856 160.697 17.0847 160.159 16.114C159.639 15.1433 159.379 14.0513 159.379 12.838C159.379 11.6247 159.639 10.5327 160.159 9.562C160.697 8.59133 161.416 7.82 162.317 7.248C163.219 6.676 164.241 6.39 165.385 6.39C166.304 6.39 167.136 6.58933 167.881 6.988C168.627 7.36933 169.225 7.90667 169.675 8.6C170.143 9.276 170.403 10.0647 170.455 10.966V14.684C170.403 15.568 170.152 16.3567 169.701 17.05C169.251 17.7433 168.653 18.2893 167.907 18.688C167.162 19.0693 166.321 19.26 165.385 19.26ZM165.775 17.05C166.555 17.05 167.231 16.868 167.803 16.504C168.393 16.14 168.852 15.646 169.181 15.022C169.511 14.3807 169.675 13.6527 169.675 12.838C169.675 11.9887 169.502 11.252 169.155 10.628C168.826 10.004 168.367 9.51 167.777 9.146C167.205 8.782 166.529 8.6 165.749 8.6C164.969 8.6 164.285 8.782 163.695 9.146C163.106 9.51 162.638 10.0127 162.291 10.654C161.962 11.278 161.797 11.9973 161.797 12.812C161.797 13.644 161.962 14.3807 162.291 15.022C162.638 15.646 163.106 16.14 163.695 16.504C164.302 16.868 164.995 17.05 165.775 17.05ZM171.885 19H169.519V15.672L169.961 12.656L169.519 9.666V0.435999H171.885V19ZM175.318 19V6.65H177.658V19H175.318ZM176.488 4.18C176.055 4.18 175.7 4.04133 175.422 3.764C175.145 3.46933 175.006 3.10533 175.006 2.672C175.006 2.256 175.145 1.90933 175.422 1.632C175.7 1.33733 176.055 1.19 176.488 1.19C176.922 1.19 177.277 1.33733 177.554 1.632C177.832 1.90933 177.97 2.256 177.97 2.672C177.97 3.10533 177.832 3.46933 177.554 3.764C177.277 4.04133 176.922 4.18 176.488 4.18ZM186.749 19.26C185.535 19.26 184.443 18.974 183.473 18.402C182.502 17.83 181.731 17.0587 181.159 16.088C180.587 15.1 180.301 13.9993 180.301 12.786C180.301 11.59 180.587 10.5153 181.159 9.562C181.731 8.59133 182.502 7.82 183.473 7.248C184.443 6.676 185.535 6.39 186.749 6.39C187.945 6.39 189.028 6.676 189.999 7.248C190.987 7.80267 191.767 8.56533 192.339 9.536C192.911 10.5067 193.197 11.59 193.197 12.786C193.197 13.9993 192.911 15.1 192.339 16.088C191.767 17.0587 190.987 17.83 189.999 18.402C189.028 18.974 187.945 19.26 186.749 19.26ZM186.749 16.998C187.529 16.998 188.222 16.816 188.829 16.452C189.435 16.088 189.912 15.594 190.259 14.97C190.605 14.3287 190.779 13.6007 190.779 12.786C190.779 11.9887 190.597 11.278 190.233 10.654C189.886 10.03 189.409 9.54467 188.803 9.198C188.213 8.834 187.529 8.652 186.749 8.652C185.969 8.652 185.275 8.834 184.669 9.198C184.062 9.54467 183.585 10.03 183.239 10.654C182.892 11.278 182.719 11.9887 182.719 12.786C182.719 13.6007 182.892 14.3287 183.239 14.97C183.585 15.594 184.062 16.088 184.669 16.452C185.275 16.816 185.969 16.998 186.749 16.998Z" fill="#222322"/>
</svg>
