<svg aria-hidden="true" xmlns="http://www.w3.org/2000/svg" xmlns:xlink="http://www.w3.org/1999/xlink"><symbol viewBox="0 0 24 24" fill="none" id="icon-basket" xmlns="http://www.w3.org/2000/svg">
<path fill-rule="evenodd" clip-rule="evenodd" d="M2.24628 2.06255C2.1251 2.12119 2 2.31665 2 2.44565C2 2.57075 2.11337 2.77794 2.21892 2.8483C2.31665 2.91085 2.44565 2.92258 3.34868 2.93822C4.30645 2.95776 4.3729 2.96167 4.52927 3.04767C4.7521 3.16495 4.95147 3.37214 5.06093 3.59497C5.11175 3.69661 5.8115 5.76459 6.61289 8.19222L8.07494 12.6018L8.00458 12.7856L7.98929 12.8253C7.8252 13.2523 7.76512 13.4087 7.74236 13.5703C7.72921 13.6636 7.72852 13.7588 7.72743 13.9088C7.7273 13.9259 7.72718 13.9437 7.72702 13.9622C7.72702 14.3297 7.74266 14.4587 7.81693 14.6737C8.05931 15.3774 8.63787 15.9051 9.3689 16.0928C9.709 16.1788 18.8722 16.1827 19.0403 16.0967C19.3609 15.9286 19.357 15.4673 19.0325 15.2797C18.9661 15.2445 17.8871 15.2288 14.2163 15.2132L9.48618 15.1937L9.27508 15.0764C9.06007 14.9591 8.86852 14.7519 8.73951 14.5095C8.68869 14.4079 8.66915 14.2828 8.66524 14.0209C8.66524 13.7199 8.68087 13.63 8.7747 13.411C8.88415 13.1569 8.89197 13.1491 9.04834 13.1257C9.13825 13.1139 11.3313 12.8833 13.9232 12.6136C16.515 12.3438 18.7315 12.1054 18.8488 12.0819C19.3179 11.992 19.8065 11.7457 20.1545 11.4252C20.4086 11.1906 20.6705 10.7723 20.8034 10.3853C20.948 9.96701 22.0231 5.36194 21.9996 5.26421C21.9723 5.15084 21.8393 5.01793 21.7025 4.9632C21.64 4.93974 18.8019 4.88501 14.0326 4.81856C9.86537 4.75992 6.45261 4.70519 6.44089 4.69346C6.43307 4.68564 6.33534 4.39636 6.22197 4.05235C5.93269 3.18059 5.82714 2.9734 5.49876 2.64111C5.19775 2.33619 4.81465 2.12119 4.43154 2.043C4.31426 2.01955 3.8217 2 3.29786 2C2.53556 2 2.34792 2.01173 2.24628 2.06255ZM14.7832 5.75677C18.1686 5.80368 20.9441 5.84668 20.9519 5.8545C20.9598 5.85841 20.7369 6.80835 20.4555 7.9694C19.9238 10.1507 19.8417 10.4048 19.5915 10.6746C19.3922 10.8857 19.1107 11.0538 18.8449 11.1241C18.626 11.1789 9.3259 12.164 9.00534 12.164H8.88415L8.28995 10.354C8.10494 9.79458 7.87152 9.08373 7.65544 8.42565L7.65536 8.42541L7.65525 8.42509C7.48789 7.91538 7.33092 7.43736 7.21491 7.08591L6.73408 5.62386L7.68011 5.64731C8.20004 5.66295 11.3978 5.70986 14.7832 5.75677ZM7.94266 17.3471C7.19209 17.5074 6.53534 18.1485 6.35943 18.8913C6.19133 19.6106 6.39461 20.3182 6.91845 20.842C7.45401 21.3776 8.14985 21.5769 8.87697 21.4088C9.24053 21.3228 9.56499 21.1313 9.8621 20.8342C10.3273 20.369 10.5423 19.7396 10.4524 19.1063C10.3547 18.4222 9.91682 17.8202 9.29135 17.5191C8.83006 17.2924 8.42741 17.2416 7.94266 17.3471ZM8.89652 18.3557C9.30698 18.5551 9.52199 18.9187 9.5259 19.3956C9.5259 19.6262 9.50636 19.724 9.43599 19.8647C9.29526 20.1305 9.04898 20.3612 8.81051 20.4511C7.86057 20.8068 6.96145 19.9077 7.31719 18.9577C7.43055 18.6528 7.73938 18.3753 8.09903 18.258C8.27886 18.1994 8.67369 18.2463 8.89652 18.3557ZM15.7407 17.9261C16.0534 17.6134 16.3779 17.4335 16.7766 17.3475C17.1089 17.2733 17.2848 17.2733 17.6171 17.3436C18.0354 17.4335 18.356 17.6095 18.6726 17.9261C19.1026 18.3561 19.2786 18.7822 19.2786 19.3999C19.2786 19.9784 19.087 20.4397 18.6648 20.858C17.8517 21.6711 16.5616 21.6711 15.7485 20.858C15.3263 20.4397 15.1348 19.9706 15.1348 19.3764C15.1348 18.7861 15.3185 18.3483 15.7407 17.9261ZM18.2543 18.919C18.1331 18.6571 17.9181 18.4343 17.6836 18.3287C17.1949 18.1137 16.5773 18.274 16.2919 18.6845C15.8658 19.3021 16.0456 20.0879 16.6867 20.4124C16.9565 20.5531 17.4568 20.5531 17.7266 20.4124C18.2739 20.1348 18.5084 19.4742 18.2543 18.919Z" fill="currentColor"/>
</symbol><symbol viewBox="0 0 24 24" fill="none" id="icon-burger" xmlns="http://www.w3.org/2000/svg">
<path d="M5 7H19" stroke="currentColor" stroke-linecap="round"/>
<path d="M5 12H19" stroke="currentColor" stroke-linecap="round"/>
<path d="M5 17H19" stroke="currentColor" stroke-linecap="round"/>
</symbol><symbol viewBox="0 0 24 24" fill="none" id="icon-close" xmlns="http://www.w3.org/2000/svg">
<path d="M18 6L6 18" stroke="currentColor" stroke-linecap="round" stroke-linejoin="round"/>
<path d="M6 6L18 18" stroke="currentColor" stroke-linecap="round" stroke-linejoin="round"/>
</symbol><symbol viewBox="0 0 34 34" fill="none" id="icon-fc-r" xmlns="http://www.w3.org/2000/svg">
<path d="M21.1594 18.1065L21.6438 15.0286H18.6597V13.028C18.6597 12.1864 19.0763 11.364 20.4085 11.364H21.7843V8.74293C20.9831 8.61517 20.1735 8.54605 19.3621 8.53613C16.9061 8.53613 15.3026 10.0126 15.3026 12.6817V15.0286H12.5801V18.1065H15.3026V25.5512H18.6597V18.1065H21.1594Z" fill="currentColor"/>
</symbol><symbol viewBox="0 0 36 36" fill="none" id="icon-heart" xmlns="http://www.w3.org/2000/svg">
<path d="M6.67601 20.8623L17.1049 30.6592C17.4642 30.9966 17.6438 31.1654 17.8556 31.2069C17.9509 31.2257 18.0491 31.2257 18.1444 31.2069C18.3562 31.1654 18.5358 30.9966 18.8951 30.6592L29.324 20.8623C32.2582 18.1059 32.6146 13.5699 30.1467 10.3891L29.6827 9.79102C26.7304 5.98587 20.8044 6.62402 18.73 10.9705C18.437 11.5844 17.563 11.5844 17.27 10.9705C15.1956 6.62402 9.26958 5.98587 6.31732 9.79102L5.85328 10.3891C3.38542 13.5699 3.74174 18.1059 6.67601 20.8623Z" fill="currentColor" stroke-width="1.5"/>
</symbol><symbol viewBox="0 0 30 30" fill="none" id="icon-inst" xmlns="http://www.w3.org/2000/svg">
<path d="M9.91152 14.8704C9.91152 12.1329 12.1294 9.91319 14.8661 9.91319C17.6028 9.91319 19.8218 12.1329 19.8218 14.8704C19.8218 17.6078 17.6028 19.8276 14.8661 19.8276C12.1294 19.8276 9.91152 17.6078 9.91152 14.8704ZM7.23253 14.8704C7.23253 19.0876 10.6501 22.5061 14.8661 22.5061C19.0821 22.5061 22.4997 19.0876 22.4997 14.8704C22.4997 10.6531 19.0821 7.23462 14.8661 7.23462C10.6501 7.23462 7.23253 10.6531 7.23253 14.8704ZM21.0179 6.93186C21.0178 7.28479 21.1223 7.62984 21.3182 7.92336C21.5141 8.21689 21.7926 8.44572 22.1185 8.58091C22.4444 8.7161 22.8031 8.75159 23.1492 8.68287C23.4953 8.61415 23.8132 8.44433 24.0628 8.19487C24.3124 7.94541 24.4824 7.62752 24.5514 7.2814C24.6203 6.93528 24.5851 6.57647 24.4503 6.25035C24.3154 5.92423 24.0868 5.64545 23.7935 5.44926C23.5003 5.25306 23.1554 5.14827 22.8026 5.14813H22.8018C22.3289 5.14835 21.8754 5.33632 21.5409 5.67077C21.2064 6.00522 21.0183 6.45879 21.0179 6.93186ZM8.86019 26.9745C7.41081 26.9085 6.62302 26.667 6.0995 26.463C5.40543 26.1927 4.91021 25.8708 4.38954 25.3507C3.86887 24.8306 3.54657 24.3357 3.27756 23.6414C3.07348 23.118 2.83205 22.3297 2.76616 20.8799C2.69409 19.3125 2.6797 18.8416 2.6797 14.8705C2.6797 10.8994 2.69528 10.4298 2.76616 8.86108C2.83217 7.41128 3.07538 6.62458 3.27756 6.09959C3.54776 5.40532 3.86958 4.90996 4.38954 4.38914C4.9095 3.86832 5.40424 3.54593 6.0995 3.27684C6.62278 3.0727 7.41081 2.8312 8.86019 2.7653C10.4272 2.6932 10.8979 2.67881 14.8661 2.67881C18.8343 2.67881 19.3055 2.69439 20.8738 2.7653C22.3232 2.83132 23.1096 3.0746 23.6345 3.27684C24.3285 3.54593 24.8238 3.86904 25.3444 4.38914C25.8651 4.90925 26.1862 5.40532 26.4564 6.09959C26.6605 6.62303 26.9019 7.41128 26.9678 8.86108C27.0399 10.4298 27.0543 10.8994 27.0543 14.8705C27.0543 18.8416 27.0399 19.3112 26.9678 20.8799C26.9018 22.3297 26.6592 23.1177 26.4564 23.6414C26.1862 24.3357 25.8644 24.831 25.3444 25.3507C24.8245 25.8703 24.3285 26.1927 23.6345 26.463C23.1112 26.6671 22.3232 26.9086 20.8738 26.9745C19.3068 27.0466 18.8361 27.061 14.8661 27.061C10.8961 27.061 10.4267 27.0466 8.86019 26.9745ZM8.7371 0.090055C7.15451 0.162147 6.0731 0.413159 5.12868 0.780755C4.15061 1.16037 3.32263 1.66965 2.49524 2.49596C1.66786 3.32228 1.16003 4.15181 0.780529 5.13016C0.413039 6.07544 0.1621 7.15658 0.090029 8.73962C0.016769 10.3252 0 10.8321 0 14.8704C0 18.9087 0.016769 19.4156 0.090029 21.0011C0.1621 22.5843 0.413039 23.6653 0.780529 24.6106C1.16003 25.5884 1.66798 26.4188 2.49524 27.2448C3.32251 28.0708 4.15061 28.5793 5.12868 28.96C6.07488 29.3276 7.15451 29.5786 8.7371 29.6507C10.323 29.7228 10.8289 29.7408 14.8661 29.7408C18.9032 29.7408 19.41 29.724 20.9951 29.6507C22.5778 29.5786 23.6585 29.3276 24.6035 28.96C25.581 28.5793 26.4095 28.0711 27.2369 27.2448C28.0643 26.4185 28.5711 25.5884 28.9517 24.6106C29.3191 23.6653 29.5713 22.5842 29.6422 21.0011C29.7142 19.4144 29.731 18.9087 29.731 14.8704C29.731 10.8321 29.7142 10.3252 29.6422 8.73962C29.5701 7.15646 29.3191 6.07485 28.9517 5.13016C28.5711 4.15241 28.063 3.32359 27.2369 2.49596C26.4109 1.66834 25.581 1.16037 24.6047 0.780755C23.6585 0.413159 22.5777 0.160957 20.9963 0.090055C19.4112 0.0179634 18.9044 0 14.8673 0C10.8301 0 10.323 0.0167738 8.7371 0.090055Z" fill="currentColor"/>
</symbol><symbol viewBox="0 0 34 34" fill="none" id="icon-inst-r" xmlns="http://www.w3.org/2000/svg">
<path d="M14.1705 17.0437C14.1705 15.4776 15.4394 14.2076 17.0051 14.2076C18.5708 14.2076 19.8404 15.4776 19.8404 17.0437C19.8404 18.6098 18.5708 19.8798 17.0051 19.8798C15.4394 19.8798 14.1705 18.6098 14.1705 17.0437ZM12.6378 17.0437C12.6378 19.4564 14.5931 21.4122 17.0051 21.4122C19.4171 21.4122 21.3724 19.4564 21.3724 17.0437C21.3724 14.6309 19.4171 12.6752 17.0051 12.6752C14.5931 12.6752 12.6378 14.6309 12.6378 17.0437ZM20.5246 12.5019C20.5246 12.7039 20.5843 12.9013 20.6964 13.0692C20.8085 13.2371 20.9678 13.368 21.1543 13.4454C21.3408 13.5227 21.546 13.543 21.744 13.5037C21.942 13.4644 22.1239 13.3673 22.2667 13.2245C22.4094 13.0818 22.5067 12.8999 22.5462 12.7019C22.5856 12.5039 22.5655 12.2986 22.4883 12.112C22.4112 11.9255 22.2804 11.766 22.1126 11.6537C21.9448 11.5415 21.7475 11.4815 21.5457 11.4814H21.5453C21.2747 11.4816 21.0152 11.5891 20.8239 11.7805C20.6325 11.9718 20.5249 12.2313 20.5246 12.5019ZM13.569 23.9686C12.7398 23.9309 12.2891 23.7927 11.9896 23.676C11.5925 23.5213 11.3092 23.3372 11.0113 23.0396C10.7134 22.7421 10.529 22.4589 10.3751 22.0617C10.2584 21.7623 10.1203 21.3113 10.0826 20.4818C10.0413 19.5851 10.0331 19.3157 10.0331 17.0438C10.0331 14.7718 10.042 14.5032 10.0826 13.6057C10.1203 12.7762 10.2595 12.3261 10.3751 12.0258C10.5297 11.6286 10.7138 11.3452 11.0113 11.0472C11.3088 10.7493 11.5918 10.5648 11.9896 10.4109C12.289 10.2941 12.7398 10.1559 13.569 10.1182C14.4655 10.077 14.7349 10.0687 17.0051 10.0687C19.2753 10.0687 19.5449 10.0776 20.4422 10.1182C21.2714 10.156 21.7213 10.2952 22.0216 10.4109C22.4187 10.5648 22.702 10.7497 22.9999 11.0472C23.2978 11.3448 23.4815 11.6286 23.6361 12.0258C23.7528 12.3253 23.891 12.7762 23.9287 13.6057C23.9699 14.5032 23.9781 14.7718 23.9781 17.0438C23.9781 19.3157 23.9699 19.5843 23.9287 20.4818C23.8909 21.3113 23.7521 21.7621 23.6361 22.0617C23.4815 22.4589 23.2974 22.7423 22.9999 23.0396C22.7024 23.3369 22.4187 23.5213 22.0216 23.676C21.7222 23.7928 21.2714 23.9309 20.4422 23.9686C19.5457 24.0099 19.2764 24.0181 17.0051 24.0181C14.7338 24.0181 14.4653 24.0099 13.569 23.9686ZM13.4986 8.58765C12.5932 8.6289 11.9745 8.77251 11.4342 8.98281C10.8746 9.19999 10.4009 9.49136 9.92756 9.96411C9.4542 10.4369 9.16367 10.9114 8.94655 11.4712C8.73631 12.012 8.59274 12.6305 8.55151 13.5362C8.50959 14.4433 8.5 14.7333 8.5 17.0437C8.5 19.3541 8.50959 19.6441 8.55151 20.5512C8.59274 21.4569 8.73631 22.0754 8.94655 22.6162C9.16367 23.1756 9.45427 23.6507 9.92756 24.1233C10.4009 24.5958 10.8746 24.8868 11.4342 25.1046C11.9755 25.3149 12.5932 25.4585 13.4986 25.4997C14.4059 25.541 14.6954 25.5512 17.0051 25.5512C19.3148 25.5512 19.6047 25.5416 20.5116 25.4997C21.4171 25.4585 22.0354 25.3149 22.576 25.1046C23.1352 24.8868 23.6093 24.596 24.0826 24.1233C24.556 23.6505 24.8459 23.1756 25.0637 22.6162C25.2739 22.0754 25.4181 21.4569 25.4587 20.5512C25.4999 19.6434 25.5095 19.3541 25.5095 17.0437C25.5095 14.7333 25.4999 14.4433 25.4587 13.5362C25.4175 12.6304 25.2739 12.0116 25.0637 11.4712C24.8459 10.9118 24.5552 10.4376 24.0826 9.96411C23.61 9.49061 23.1352 9.19999 22.5767 8.98281C22.0354 8.77251 21.417 8.62822 20.5123 8.58765C19.6054 8.54641 19.3155 8.53613 17.0058 8.53613C14.6961 8.53613 14.4059 8.54573 13.4986 8.58765Z" fill="currentColor"/>
</symbol><symbol viewBox="0 0 24 24" fill="none" id="icon-search" xmlns="http://www.w3.org/2000/svg">
<circle cx="11" cy="11" r="6" stroke="currentColor"/>
<path d="M20 20L17 17" stroke="currentColor" stroke-linecap="round"/>
</symbol><symbol viewBox="0 0 34 34" fill="none" id="icon-wh-r" xmlns="http://www.w3.org/2000/svg">
<path d="M8.5 24.8706L9.71971 20.3354C8.73604 18.5687 8.42352 16.5072 8.8395 14.529C9.25547 12.5508 10.372 10.7888 11.9843 9.56618C13.5966 8.34358 15.5964 7.74242 17.6168 7.87303C19.6372 8.00364 21.5426 8.85726 22.9835 10.2772C24.4244 11.6972 25.304 13.5883 25.4609 15.6035C25.6179 17.6187 25.0417 19.6228 23.838 21.2481C22.6343 22.8734 20.884 24.0108 18.9081 24.4516C16.9322 24.8925 14.8633 24.6072 13.0811 23.6481L8.5 24.8706ZM13.302 21.951L13.5853 22.1188C14.8762 22.8827 16.3839 23.1988 17.8736 23.0178C19.3632 22.8369 20.751 22.1691 21.8208 21.1185C22.8905 20.068 23.5822 18.6936 23.7878 17.2096C23.9935 15.7256 23.7017 14.2154 22.9579 12.9143C22.2141 11.6132 21.0601 10.5942 19.6756 10.0163C18.2912 9.43832 16.7541 9.3338 15.304 9.719C13.8538 10.1042 12.5721 10.9575 11.6584 12.1459C10.7447 13.3343 10.2505 14.7911 10.2527 16.2892C10.2515 17.5314 10.5956 18.7495 11.2468 19.8081L11.4244 20.1005L10.7425 22.6318L13.302 21.951Z" fill="currentColor"/>
<path fill-rule="evenodd" clip-rule="evenodd" d="M20.1783 17.4534C20.0122 17.3197 19.8178 17.2256 19.6097 17.1782C19.4017 17.1309 19.1856 17.1315 18.9778 17.1802C18.6657 17.3096 18.464 17.7986 18.2623 18.0431C18.2198 18.1017 18.1573 18.1428 18.0866 18.1587C18.0159 18.1746 17.9418 18.1642 17.8782 18.1294C16.7354 17.6826 15.7776 16.8632 15.1602 15.8043C15.1076 15.7382 15.0827 15.6543 15.0907 15.5703C15.0988 15.4862 15.1392 15.4086 15.2034 15.3536C15.4284 15.1313 15.5936 14.856 15.6837 14.553C15.7037 14.2189 15.627 13.8861 15.4628 13.5942C15.3358 13.1851 15.0942 12.8208 14.7665 12.5443C14.5974 12.4684 14.41 12.443 14.2268 12.4711C14.0436 12.4991 13.8725 12.5795 13.734 12.7025C13.4937 12.9096 13.3029 13.1678 13.1757 13.4582C13.0486 13.7486 12.9883 14.0637 12.9993 14.3805C13.0001 14.5583 13.0226 14.7354 13.0666 14.9078C13.1781 15.322 13.3495 15.7177 13.5756 16.0823C13.7386 16.3617 13.9166 16.6322 14.1086 16.8925C14.7326 17.7478 15.5171 18.4739 16.4184 19.0307C16.8706 19.3136 17.354 19.5436 17.859 19.7162C18.3835 19.9536 18.9626 20.0447 19.5349 19.9799C19.8609 19.9306 20.1698 19.8021 20.4344 19.6057C20.699 19.4092 20.9112 19.1509 21.0523 18.8533C21.1352 18.6736 21.1604 18.4726 21.1243 18.278C21.0379 17.8801 20.5049 17.6452 20.1783 17.4534Z" fill="currentColor"/>
</symbol></svg>